<svg xmlns="http://www.w3.org/2000/svg" viewBox="0 0 120 120" role="img" aria-label="Luxx Vault monogram — Karat dial"><g fill="#D6B26E"><path d="M3 60a57 57 0 1 0 114 0a57 57 0 1 0 -114 0ZM5.600000000000001 60a54.4 54.4 0 1 1 108.8 0a54.4 54.4 0 1 1 -108.8 0Z" fill-rule="evenodd"/><path d="M73.63 10.85L72.77 10.62L71.73 14.49L72.6 14.72Z" fill-rule="evenodd"/><path d="M85.89 16.06L85.11 15.61L83.11 19.07L83.89 19.52Z" fill-rule="evenodd"/><path d="M96.38 24.26L95.74 23.62L92.92 26.45L93.55 27.08Z" fill-rule="evenodd"/><path d="M104.39 34.89L103.94 34.11L100.48 36.11L100.93 36.89Z" fill-rule="evenodd"/><path d="M109.38 47.23L109.15 46.37L105.28 47.4L105.51 48.27Z" fill-rule="evenodd"/><path d="M111 60.8L111 59.2L104 59.2L104 60.8Z" fill-rule="evenodd"/><path d="M109.15 73.63L109.38 72.77L105.51 71.73L105.28 72.6Z" fill-rule="evenodd"/><path d="M103.94 85.89L104.39 85.11L100.93 83.11L100.48 83.89Z" fill-rule="evenodd"/><path d="M95.74 96.38L96.38 95.74L93.55 92.92L92.92 93.55Z" fill-rule="evenodd"/><path d="M85.11 104.39L85.89 103.94L83.89 100.48L83.11 100.93Z" fill-rule="evenodd"/><path d="M72.77 109.38L73.63 109.15L72.6 105.28L71.73 105.51Z" fill-rule="evenodd"/><path d="M59.2 111L60.8 111L60.8 104L59.2 104Z" fill-rule="evenodd"/><path d="M46.37 109.15L47.23 109.38L48.27 105.51L47.4 105.28Z" fill-rule="evenodd"/><path d="M34.11 103.94L34.89 104.39L36.89 100.93L36.11 100.48Z" fill-rule="evenodd"/><path d="M23.62 95.74L24.26 96.38L27.08 93.55L26.45 92.92Z" fill-rule="evenodd"/><path d="M15.61 85.11L16.06 85.89L19.52 83.89L19.07 83.11Z" fill-rule="evenodd"/><path d="M10.62 72.77L10.85 73.63L14.72 72.6L14.49 71.73Z" fill-rule="evenodd"/><path d="M9 59.2L9 60.8L16 60.8L16 59.2Z" fill-rule="evenodd"/><path d="M10.85 46.37L10.62 47.23L14.49 48.27L14.72 47.4Z" fill-rule="evenodd"/><path d="M16.06 34.11L15.61 34.89L19.07 36.89L19.52 36.11Z" fill-rule="evenodd"/><path d="M24.26 23.62L23.62 24.26L26.45 27.08L27.08 26.45Z" fill-rule="evenodd"/><path d="M34.89 15.61L34.11 16.06L36.11 19.52L36.89 19.07Z" fill-rule="evenodd"/><path d="M47.23 10.62L46.37 10.85L47.4 14.72L48.27 14.49Z" fill-rule="evenodd"/><path d="M33.51 44.57L39.94 44.57L39.94 74.57L33.51 74.57L33.51 44.57M39.81 72.73L51.26 72.73L52.29 74.57L39.81 74.57L39.81 72.73M53.96 65.79L54.39 65.79L52.41 74.57L44.01 74.57L45.56 72.73Q47.70 72.73 49.33 71.89Q50.96 71.06 52.11 69.49Q53.27 67.93 53.96 65.79M33.51 71.44L33.64 71.44L33.64 74.57L30.21 74.57L30.21 74.14Q30.21 74.14 30.49 74.14Q30.77 74.14 30.77 74.14Q31.89 74.14 32.68 73.35Q33.47 72.56 33.51 71.44M33.64 44.57L33.64 47.70L33.51 47.70Q33.47 46.59 32.68 45.79Q31.89 45 30.77 45Q30.77 45 30.49 45Q30.21 45 30.21 45L30.21 44.57L33.64 44.57M39.94 47.70L39.81 47.70L39.81 44.57L43.24 44.57L43.24 45Q43.20 45 42.94 45Q42.69 45 42.69 45Q41.57 45 40.78 45.79Q39.99 46.59 39.94 47.70"/><path d="M75.81 67.16L73.16 75.43L58.97 44.83L66.64 44.83L75.81 67.16M73.54 75.43L73.16 75.43L73.03 70.20L83.91 44.70L87 44.70L75.64 69.81Q75.56 70.07 75.24 70.78Q74.91 71.49 74.53 72.39Q74.14 73.29 73.86 74.12Q73.59 74.96 73.54 75.43M85.67 47.70L82.63 47.70Q83.19 46.41 82.50 45.71Q81.81 45 81 45L80.61 45L80.61 44.57L89.79 44.57L89.79 45Q89.79 45 89.59 45Q89.40 45 89.40 45Q88.46 45 87.41 45.62Q86.36 46.24 85.67 47.70M67.84 47.70L60.30 47.70Q59.61 46.24 58.56 45.62Q57.51 45 56.53 45Q56.53 45 56.36 45Q56.19 45 56.19 45L56.19 44.57L69.81 44.57L69.81 45L69.43 45Q68.61 45 67.99 45.71Q67.37 46.41 67.84 47.70"/></g><path d="M22 60a38 38 0 1 0 76 0a38 38 0 1 0 -76 0Z" fill="none" stroke="#D6B26E" stroke-width="0.9"/><path d="M60 9L63 13L60 17L57 13Z" fill="#BFD8E4"/></svg>
